# xmcd
#
# Track frame offsets:
#	150
#	6657
#	21025
#	31262
#	49912
#	51780
#	64750
#	75000
#	85950
#	97300
#	102690
#	103010
#	113675
#	122875
#	128672
#	140270
#	153712
#	165675
#	174070
#	174370
#	177912
#
# Disc length: 2475 seconds
#
# Revision: 1
# Processed by: cddbd v1.5.2PL0 Copyright (c) Steve Scherf et al.
# Submitted via: EasyCDDAExtractor 5.0.6
#
DISCID=1209a915
DTITLE=Smudge - Manilow (Re-Issue Disc 1)
DYEAR=1994
DGENRE=Indie Rock
TTITLE0=Manilow
TTITLE1=Ingrown
TTITLE2=Impractical Joke
TTITLE3=Superhero
TTITLE4=Funny You Should Mention That
TTITLE5=Bodyshirt
TTITLE6=Down About It
TTITLE7=Little Help
TTITLE8=Desmond
TTITLE9=Scary Cassettes
TTITLE10=Mr. Coffee Man
TTITLE11=Pulp
TTITLE12=Dave The Talking Bear
TTITLE13=Ugly, Just Like Me
TTITLE14=Divan
TTITLE15=Not Here For A Haircut
TTITLE16=Don't Understand
TTITLE17=Hell On Hot Bread
TTITLE18=Top Bunkin' Duncan
TTITLE19=Charles In Charge
TTITLE20=Kelly
EXTD=
EXTT0=
EXTT1=
EXTT2=
EXTT3=
EXTT4=
EXTT5=
EXTT6=
EXTT7=
EXTT8=
EXTT9=
EXTT10=
EXTT11=
EXTT12=
EXTT13=
EXTT14=
EXTT15=
EXTT16=
EXTT17=
EXTT18=
EXTT19=
EXTT20=
PLAYORDER=
